<svg width="58" height="37" viewBox="0 0 58 37" fill="none" xmlns="http://www.w3.org/2000/svg">
<g clip-path="url(#clip0_1411_202)">
<path d="M29 37C19.9 37 10.9 37 1.8 37C0.6 37 0 36.4 0 35.2C0 28.5 0 21.9 0 15.2C0 10.6 0 6.1 0 1.5C0 0.6 0.6 0 1.7 0C7.7 0 13.7 0 19.7 0C30.2 0 40.6 0 51.1 0C52.8 0 54.5 0 56.2 0C57.4 0 58 0.6 58 1.7C58 11.8 58 21.8 58 31.9C58 33 58 34.1 58 35.3C58 36.4 57.4 37 56.3 37C51.5 37 46.7 37 41.9 37C37.6 37 33.3 37 29 37ZM17.3 16.6C17.5 17.2 17.9 17.4 18.4 17.4C19.1 17.4 19.9 17.4 20.6 17.4C22.8 17.4 24.9 17.4 27.1 17.4C27.7 17.4 28 17.1 28 16.5C28 16.2 28 15.8 28 15.5C28.3 15.5 28.5 15.5 28.8 15.5C28.8 15.8 28.8 16 28.8 16.2C28.8 17.2 29.1 17.5 30.1 17.5C30.7 17.5 31.4 17.5 32 17.5C32.8 17.5 33.7 17.8 34.2 16.8C35.5 17.7 36.8 17.5 38.2 17.4C38.4 17.4 38.8 17.2 38.8 17C39 16.1 39.7 16.2 40.3 16.3C40.5 16.3 40.7 16.4 40.7 16.5C41 17.4 41.7 17.5 42.5 17.5C42.8 17.5 43.2 17.5 43.5 17.5C45.2 17.5 45.2 17.5 45.5 15.9C45.6 15.9 45.6 16 45.6 16.1C46.1 17.4 47 17.7 48.3 17.5C48.4 17.5 48.5 17.5 48.7 17.5C49.4 17.5 49.8 17.2 49.8 16.5C49.8 14.8 49.8 13.1 49.8 11.4C49.8 11.1 49.5 10.6 49.3 10.5C48.6 10.4 47.9 10.3 47.2 10.5C46.9 10.6 46.7 11.2 46.4 11.5C46.3 11.4 46.2 11.1 46 10.9C45.8 10.7 45.5 10.4 45.2 10.3C44.5 10.2 43.8 10.2 43.1 10.3C42.6 10.3 42.2 10.6 42.2 11.2C42.2 11.4 42.2 11.5 42.2 11.7C42 11.6 42 11.5 41.9 11.4C41.7 10.6 41.2 10.2 40.3 10.3C39.6 10.4 38.9 10.5 38.2 10.4C36.7 10.3 35.3 10.1 34 11C33.4 10.1 31.9 10 31 10.6C30.3 10.5 29.7 10.3 29 10.3C27.5 10.3 25.9 10.3 24.4 10.3C22.1 10.3 19.8 10.3 17.4 10.3C16.8 10.3 16.4 10.5 16.2 11.1C16 11.6 15.8 12.1 15.5 12.6C15.2 12 14.9 11.4 14.7 10.9C14.5 10.5 14.2 10.3 13.7 10.3C13 10.3 12.4 10.3 11.7 10.3C11.1 10.3 10.8 10.6 10.7 11.2C10.7 11.4 10.7 11.5 10.7 11.7C10.5 11.5 10.4 11.3 10.4 11.1C10.2 10.5 9.8 10.2 9.1 10.2C8.6 10.2 8.1 10.2 7.6 10.2C7.1 10.2 6.8 10.4 6.6 10.8C5.8 12.6 5.1 14.3 4.3 16.1C4 16.8 4.4 17.4 5.2 17.4C5.6 17.4 5.9 17.4 6.3 17.4C6.9 17.4 7.3 17.2 7.4 16.7C7.5 16.3 7.7 16.2 8.1 16.2C8.5 16.3 9.1 16 9.3 16.7C9.5 17.3 9.9 17.5 10.5 17.5C11.2 17.5 11.8 17.5 12.5 17.5C13.1 17.5 13.6 17.4 13.8 16.7C14.8 17.8 16.5 17.8 17.3 16.6ZM22.7 20.9C22.4 20.6 22.2 20.3 21.9 20.1C21.6 19.9 21.2 19.7 20.9 19.6C19.2 19.5 17.6 19.6 15.9 19.6C15.2 19.6 14.8 20 14.8 20.7C14.8 22.4 14.8 24.1 14.8 25.8C14.8 26.6 15.1 26.9 15.9 26.9C17.1 26.9 18.4 26.8 19.6 26.9C20.7 27 21.7 26.8 22.3 25.8C22.3 25.7 22.4 25.7 22.6 25.6C22.9 25.9 23.1 26.2 23.4 26.4C23.7 26.6 24 26.9 24.3 26.9C25.1 27 25.9 26.9 26.8 26.9C27.4 26.9 27.7 26.5 27.7 26C27.7 25.7 27.7 25.4 27.7 25.2C28.7 25.1 29.5 24.9 30.4 24.8C30.5 25.3 30.4 26 30.7 26.5C31 27.2 31.8 26.9 32.4 26.9C33.9 27 33.5 25.8 33.6 25C33.9 25 34.1 25 34.3 25C34.3 25.3 34.3 25.5 34.3 25.7C34.3 26.6 34.6 26.9 35.5 26.9C36.4 26.9 37.2 26.9 38.1 26.9C39.7 26.9 41.2 26.9 42.8 26.9C44.2 26.9 45.7 27.2 46.8 26.5C47.5 26.7 47.9 26.8 48.4 26.9C49.2 26.9 50.1 26.9 50.9 26.9C52.3 26.8 53.3 26 53.4 24.9C53.5 24 53.4 23.2 52.8 22.6C52.9 22.4 53.1 22.2 53.1 22C53.2 20.2 53.2 19.7 51.3 19.8C51.2 19.8 51.1 19.8 50.9 19.8C49.8 19.8 48.6 19.6 47.7 20.3C47.4 20.1 47.1 19.8 46.9 19.8C45.4 19.8 43.9 19.5 42.4 20.2C41.6 19.6 37.2 19.6 36.4 20.2C34.6 19.6 32.8 19.8 31 19.9C30.4 20.6 29.7 19.9 29.1 19.9C27.9 19.9 26.8 19.9 25.6 19.8C24.4 19.7 23.3 19.9 22.6 21C22.8 20.8 22.8 20.8 22.7 20.9Z" fill="url(#paint0_linear_1411_202)"/>
<path d="M47.4001 14.8C47.4001 13.5 47.4001 12.3 47.4001 11.1C47.9001 11.1 48.3001 11.1 48.7001 11.1C48.7001 12.8 48.7001 14.6 48.7001 16.5C48.2001 16.5 47.6001 16.5 47.1001 16.5C46.9001 16.5 46.7001 16.3 46.6001 16.1C45.9001 15 45.2001 13.8 44.4001 12.7C44.4001 13.9 44.4001 15.2 44.4001 16.5C43.5001 16.5 42.7001 16.5 41.9001 16.5C41.8001 16.5 41.6001 16.2 41.5001 16C41.3001 15.4 41.0001 15.2 40.3001 15.3C40.1001 15.3 39.8001 15.3 39.6001 15.3C38.8001 15.2 38.1001 15.3 38.0001 16.2C38.0001 16.3 37.7001 16.4 37.6001 16.4C37.0001 16.4 36.4001 16.4 35.8001 16.4C34.7001 16.3 34.0001 15.7 33.9001 14.7C33.8001 13.9 33.9001 13.1 34.0001 12.3C34.2001 11.6 34.8001 11.1 35.6001 11.1C36.3001 11 37.0001 11 37.7001 11C37.7001 11.4 37.7001 11.8 37.7001 12.2C37.2001 12.2 36.7001 12.2 36.3001 12.2C35.6001 12.2 35.3001 12.6 35.2001 13.2C35.2001 13.6 35.2001 14 35.2001 14.5C35.3001 15.1 36.3001 15.6 36.9001 15.3C37.0001 15.2 37.1001 15.1 37.2001 14.9C37.7001 13.7 38.2001 12.6 38.8001 11.4C38.9001 11.2 39.2001 11 39.4001 11C40.9001 10.9 40.9001 10.9 41.5001 12.3C42.0001 13.4 42.5001 14.6 43.1001 15.7C43.1001 14.1 43.1001 12.6 43.1001 10.9C43.8001 10.9 44.4001 10.9 44.9001 10.9C45.1001 10.9 45.3001 11.1 45.4001 11.3C46.1001 12.6 46.7001 13.6 47.4001 14.8ZM40.8001 14.2C40.5001 13.5 40.2001 12.8 39.9001 12.1C39.6001 12.9 39.3001 13.5 39.0001 14.2C39.6001 14.2 40.2001 14.2 40.8001 14.2Z" fill="url(#paint1_linear_1411_202)"/>
<path d="M13.1999 12.7001C13.1999 14.0001 13.1999 15.2001 13.1999 16.6001C12.2999 16.6001 11.4999 16.6001 10.6999 16.6001C10.4999 16.6001 10.2999 16.2001 10.2999 16.0001C10.1999 15.6001 9.9999 15.4001 9.4999 15.5001C8.8999 15.5001 8.2999 15.5001 7.6999 15.5001C7.4999 15.5001 7.2999 15.7001 7.1999 15.8001C6.6999 16.8001 6.6999 16.8001 5.3999 16.6001C5.8999 15.4001 6.3999 14.3001 6.8999 13.1001C6.9999 12.8001 7.1999 12.4001 7.2999 12.1001C7.3999 11.8001 7.5999 11.3001 7.7999 11.3001C8.3999 11.2001 8.9999 11.3001 9.5999 11.3001C9.6999 11.3001 9.7999 11.6001 9.8999 11.7001C10.4999 13.2001 11.1999 14.6001 11.8999 16.1001C11.8999 14.5001 11.8999 12.9001 11.8999 11.3001C12.5999 11.3001 13.1999 11.3001 13.7999 11.3001C13.9999 11.3001 14.1999 11.5001 14.1999 11.7001C14.6999 12.7001 15.1999 13.8001 15.6999 14.9001C16.0999 14.0001 16.3999 13.3001 16.6999 12.6001C17.2999 11.3001 17.2999 11.3001 18.7999 11.3001C18.9999 11.3001 19.1999 11.3001 19.4999 11.3001C19.4999 13.1001 19.4999 14.9001 19.4999 16.7001C19.0999 16.7001 18.6999 16.7001 18.1999 16.7001C18.1999 15.4001 18.1999 14.1001 18.1999 12.9001H18.0999C17.9999 13.0001 17.9999 13.1001 17.8999 13.2001C17.3999 14.3001 16.8999 15.3001 16.4999 16.4001C16.3999 16.7001 16.1999 16.9001 15.7999 16.8001C15.4999 16.8001 15.0999 16.9001 14.8999 16.4001C14.3999 15.2001 13.8999 14.1001 13.2999 12.9001C13.2999 12.6001 13.1999 12.7001 13.1999 12.7001ZM7.7999 14.2001C8.3999 14.2001 8.8999 14.2001 9.4999 14.2001C9.1999 13.5001 8.8999 12.9001 8.5999 12.1001C8.2999 12.8001 7.9999 13.5001 7.7999 14.2001Z" fill="url(#paint2_linear_1411_202)"/>
<path d="M27.1 14.6C27.1 15.3 27.1 15.9 27.1 16.5C26.7 16.5 26.3 16.5 25.8 16.5C25.8 14.7 25.8 13 25.8 11.2C27.1 11.2 28.3001 11.2 29.6 11.2C30.2 11.2 30.8 11.5 31 12.1C31.2 12.8 31 13.4 30.5 13.8C30.4 13.9 30.4 13.9 30.3 14C31.4 14.6 31 15.6 31.1 16.5C30.6 16.5 30.2001 16.5 29.7001 16.5C29.7001 16.2 29.7001 15.8 29.7001 15.5C29.7001 14.8 29.4001 14.6 28.7001 14.6C28.2001 14.6 27.7 14.6 27.1 14.6ZM27.2001 13.4C27.9001 13.4 28.5 13.5 29.1 13.4C29.3 13.4 29.6 13 29.6 12.8C29.6 12.6 29.2 12.3 29 12.3C28.4 12.2 27.8 12.3 27.1 12.3C27.2 12.7 27.2001 13 27.2001 13.4Z" fill="url(#paint3_linear_1411_202)"/>
<path d="M24.9001 15.4C24.9001 15.8 24.9001 16.1 24.9001 16.5C23.5001 16.5 22.0001 16.5 20.6001 16.5C20.6001 14.7 20.6001 13 20.6001 11.2C22.0001 11.2 23.5001 11.2 24.9001 11.2C24.9001 11.6 24.9001 11.9 24.9001 12.3C23.9001 12.3 22.9001 12.3 21.9001 12.3C21.9001 12.6 21.9001 12.9 21.9001 13.3C22.9001 13.3 23.8001 13.3 24.8001 13.3C24.8001 13.7 24.8001 14 24.8001 14.4C23.9001 14.4 22.9001 14.4 21.9001 14.4C21.9001 14.8 21.9001 15.1 21.9001 15.5C22.9001 15.4 23.8001 15.4 24.9001 15.4Z" fill="url(#paint4_linear_1411_202)"/>
<path d="M31.8999 11.2C32.2999 11.2 32.6999 11.2 33.1999 11.2C33.1999 13 33.1999 14.7 33.1999 16.5C32.7999 16.5 32.3999 16.5 31.8999 16.5C31.8999 14.7 31.8999 13 31.8999 11.2Z" fill="url(#paint5_linear_1411_202)"/>
<path d="M37.0001 13.3C36.8001 13.7 36.7001 14.1 36.5001 14.6C36.0001 14.3 36.1001 13.9 36.2001 13.6C36.3001 13.4 36.6001 13.3 36.9001 13.2C36.9001 13.1 37.0001 13.2 37.0001 13.3Z" fill="url(#paint6_linear_1411_202)"/>
<path d="M26.9 24.1C26.9 24.7 26.9 25.2 26.9 25.8C26.1 25.8 25.3 25.8 24.4 25.8C24.3 25.8 24.1 25.6 24 25.5C23.6 25 23.1 24.6 22.7 24.1C22.3 24.5 21.9 24.9 21.5 25.3C21.2 25.7 20.7 25.9 20.2 25.9C18.8 25.9 17.3 25.9 15.8 25.9C15.8 24.1 15.8 22.3 15.8 20.5C16.2 20.5 16.6 20.5 17 20.5C18.2 20.5 19.4 20.5 20.6 20.5C20.9 20.5 21.2 20.7 21.4 20.9C21.8 21.3 22.2 21.8 22.7 22.3C23.2 21.8 23.6 21.3 24.1 20.9C24.3 20.7 24.5 20.6 24.7 20.6C26.2 20.6 27.6 20.6 29.1 20.6C30.2 20.6 30.8 21.3 30.9 22.3C30.9 23.4 30.4 24 29.2 24.1C28.4 24.1 27.7 24.1 26.9 24.1ZM17.1 24.7C18.1 24.7 19.1 24.7 20.1 24.7C20.2 24.7 20.3 24.7 20.4 24.6C20.9 24.1 21.3 23.6 21.8 23.1C21.4 22.7 21.1 22.3 20.7 21.9C20.6 21.8 20.4 21.5 20.2 21.5C19.1 21.5 18.1 21.5 17 21.5C17 21.8 17 22.1 17 22.5C18 22.5 18.9 22.5 19.9 22.5C19.9 22.9 19.9 23.2 19.9 23.6C18.9 23.6 18 23.6 17.1 23.6C17.1 24 17.1 24.3 17.1 24.7ZM23.6 23.2C24.3 23.9 24.9 24.6 25.5 25.3C25.5 23.9 25.5 22.5 25.5 21.1C24.8 21.8 24.2 22.5 23.6 23.2ZM26.9 22.9C27.6 22.9 28.2 23 28.8 22.9C29 22.9 29.3 22.5 29.3 22.3C29.3 22.1 29 21.7 28.8 21.7C28.2 21.6 27.5 21.7 26.9 21.7C26.9 22.1 26.9 22.5 26.9 22.9Z" fill="url(#paint7_linear_1411_202)"/>
<path d="M32.8 23.9C32.8 24.6 32.8 25.2 32.8 25.8C32.3 25.8 32 25.8 31.5 25.8C31.5 24 31.5 22.3 31.5 20.4C32 20.4 32.4 20.4 32.9 20.4C33.6 20.4 34.3 20.4 35 20.4C35.9 20.4 36.5 20.8 36.7 21.3C36.9 22 36.7 22.6 36 23.1C36.2 23.5 36.5 23.9 36.6 24.3C36.7 24.7 36.6 25.2 36.6 25.7C36.2 25.7 35.8 25.7 35.3 25.7C35.3 25.4 35.3 25.1 35.3 24.8C35.3 24.1 35.1 23.9 34.4 23.8C33.9 23.9 33.4 23.9 32.8 23.9ZM32.8 22.8C33.5 22.8 34.1 22.8 34.7 22.8C34.9 22.8 35.2 22.4 35.2 22.2C35.2 22 34.9 21.7 34.7 21.7C34.1 21.6 33.4 21.7 32.8 21.7C32.8 22 32.8 22.4 32.8 22.8Z" fill="url(#paint8_linear_1411_202)"/>
<path d="M38.8001 24.7C39.9001 24.7 40.8001 24.7 41.9001 24.7C41.9001 25.1 41.9001 25.4 41.9001 25.8C40.5001 25.8 39.0001 25.8 37.6001 25.8C37.6001 24 37.6001 22.2 37.6001 20.4C39.0001 20.4 40.5001 20.4 41.9001 20.4C41.9001 20.8 41.9001 21.1 41.9001 21.5C40.9001 21.5 39.9001 21.5 38.9001 21.5C38.9001 21.8 38.9001 22.1 38.9001 22.5C39.8001 22.5 40.8001 22.5 41.8001 22.5C41.8001 22.9 41.8001 23.2 41.8001 23.6C40.9001 23.6 39.9001 23.6 38.9001 23.6C38.8001 24 38.8001 24.3 38.8001 24.7Z" fill="url(#paint9_linear_1411_202)"/>
<path d="M47 20.5C47 20.9 47 21.2 47 21.6C46.3 21.6 45.6 21.6 45 21.6C44.8 21.6 44.6 21.5 44.4 21.6C44.2 21.7 44 21.9 44 22.1C44 22.2 44.3 22.4 44.4 22.5C44.9 22.6 45.3 22.6 45.8 22.6C46.8 22.7 47.3 23.1 47.3 24C47.3 25 46.9 25.7 45.9 25.8C44.9 25.9 43.8 25.8 42.7 25.8C42.7 25.5 42.7 25.1 42.7 24.7C43.4 24.7 44 24.7 44.7 24.7C44.9 24.7 45.2 24.7 45.4 24.7C45.6 24.6 45.7 24.4 45.9 24.3C45.7 24.1 45.6 23.9 45.4 23.8C44.9 23.7 44.3 23.7 43.8 23.6C42.9 23.4 42.5 22.9 42.5 22C42.6 21.1 43.1 20.5 44 20.5C45 20.5 46 20.5 47 20.5Z" fill="url(#paint10_linear_1411_202)"/>
<path d="M48.1 25.8C48.1 25.5 48.1 25.1 48.1 24.7C48.8 24.7 49.5 24.7 50.2 24.7C50.4 24.7 50.6 24.8 50.8 24.7C51 24.6 51.2 24.4 51.4 24.2C51.2 24.1 51 23.8 50.8 23.8C50.3 23.7 49.8 23.7 49.3 23.6C48.4 23.4 48 22.9 48 22C48 21.2 48.6 20.6 49.4 20.5C50.4 20.4 51.4 20.5 52.5 20.5C52.5 20.9 52.5 21.2 52.5 21.6C51.9 21.6 51.2 21.6 50.6 21.6C50.4 21.6 50.2 21.6 50 21.6C49.8 21.7 49.6 21.9 49.4 22C49.6 22.2 49.8 22.4 50 22.5C50.5 22.6 50.9 22.6 51.4 22.6C52.4 22.7 52.8 23.2 52.8 24.1C52.8 25 52.3 25.7 51.4 25.7C50.2 25.9 49.2 25.8 48.1 25.8Z" fill="url(#paint11_linear_1411_202)"/>
</g>
<defs>
<linearGradient id="paint0_linear_1411_202" x1="29" y1="0" x2="29" y2="37" gradientUnits="userSpaceOnUse">
<stop stop-color="white"/>
<stop offset="1" stop-color="white" stop-opacity="0.75"/>
</linearGradient>
<linearGradient id="paint1_linear_1411_202" x1="41.2794" y1="10.9" x2="41.2794" y2="16.5" gradientUnits="userSpaceOnUse">
<stop stop-color="white"/>
<stop offset="1" stop-color="white" stop-opacity="0.75"/>
</linearGradient>
<linearGradient id="paint2_linear_1411_202" x1="12.4499" y1="11.2556" x2="12.4499" y2="16.8261" gradientUnits="userSpaceOnUse">
<stop stop-color="white"/>
<stop offset="1" stop-color="white" stop-opacity="0.75"/>
</linearGradient>
<linearGradient id="paint3_linear_1411_202" x1="28.45" y1="11.2" x2="28.45" y2="16.5" gradientUnits="userSpaceOnUse">
<stop stop-color="white"/>
<stop offset="1" stop-color="white" stop-opacity="0.75"/>
</linearGradient>
<linearGradient id="paint4_linear_1411_202" x1="22.7501" y1="11.2" x2="22.7501" y2="16.5" gradientUnits="userSpaceOnUse">
<stop stop-color="white"/>
<stop offset="1" stop-color="white" stop-opacity="0.75"/>
</linearGradient>
<linearGradient id="paint5_linear_1411_202" x1="32.5499" y1="11.2" x2="32.5499" y2="16.5" gradientUnits="userSpaceOnUse">
<stop stop-color="white"/>
<stop offset="1" stop-color="white" stop-opacity="0.75"/>
</linearGradient>
<linearGradient id="paint6_linear_1411_202" x1="36.5592" y1="13.1586" x2="36.5592" y2="14.6" gradientUnits="userSpaceOnUse">
<stop stop-color="white"/>
<stop offset="1" stop-color="white" stop-opacity="0.75"/>
</linearGradient>
<linearGradient id="paint7_linear_1411_202" x1="23.35" y1="20.5" x2="23.35" y2="25.9" gradientUnits="userSpaceOnUse">
<stop stop-color="white"/>
<stop offset="1" stop-color="white" stop-opacity="0.75"/>
</linearGradient>
<linearGradient id="paint8_linear_1411_202" x1="34.1368" y1="20.4" x2="34.1368" y2="25.8" gradientUnits="userSpaceOnUse">
<stop stop-color="white"/>
<stop offset="1" stop-color="white" stop-opacity="0.75"/>
</linearGradient>
<linearGradient id="paint9_linear_1411_202" x1="39.7501" y1="20.4" x2="39.7501" y2="25.8" gradientUnits="userSpaceOnUse">
<stop stop-color="white"/>
<stop offset="1" stop-color="white" stop-opacity="0.75"/>
</linearGradient>
<linearGradient id="paint10_linear_1411_202" x1="44.9" y1="20.5" x2="44.9" y2="25.8444" gradientUnits="userSpaceOnUse">
<stop stop-color="white"/>
<stop offset="1" stop-color="white" stop-opacity="0.75"/>
</linearGradient>
<linearGradient id="paint11_linear_1411_202" x1="50.4" y1="20.4556" x2="50.4" y2="25.825" gradientUnits="userSpaceOnUse">
<stop stop-color="white"/>
<stop offset="1" stop-color="white" stop-opacity="0.75"/>
</linearGradient>
<clipPath id="clip0_1411_202">
<rect width="58" height="37" fill="white"/>
</clipPath>
</defs>
</svg>
