<svg width="37" height="20" viewBox="0 0 37 20" fill="none" xmlns="http://www.w3.org/2000/svg">
<path fill-rule="evenodd" clip-rule="evenodd" d="M11.1663 13.8512L11.0174 13.7581C10.603 14.4431 9.96847 15.0017 9.15915 15.3608C7.62466 16.0525 6.20025 15.8729 5.17726 14.9485L5.08661 15.0948H5.08014L3.33847 17.7882C3.77227 18.1008 4.23844 18.3601 4.72403 18.5729C6.65347 19.3976 8.62175 19.3643 10.5641 18.4865C11.9691 17.8613 13.0698 16.897 13.8273 15.6867L11.1663 13.8512ZM5.72113 7.20751C4.096 7.92574 3.26077 9.49522 3.43559 11.3374L10.3116 8.28486C9.12677 6.85504 7.59229 6.38287 5.72113 7.20751ZM1.15652 15.414C0.962282 15.0815 0.787467 14.7357 0.632076 14.3766C-0.164302 12.4746 -0.196675 10.5127 0.470211 8.62403C1.20832 6.55577 2.61331 4.96635 4.43268 4.16166C6.71822 3.14415 9.24979 3.34366 11.4382 4.68703C12.8303 5.51167 13.8144 6.78189 14.5655 8.58413C14.6626 8.81689 14.7467 9.06295 14.8244 9.26911L1.15652 15.414ZM19.6092 0.191406V15.1613L21.8688 16.1057L20.5868 19.1914L18.0941 18.1274C17.5373 17.8746 17.1553 17.4956 16.8639 17.0633C16.5855 16.6244 16.3848 16.0192 16.3848 15.2079V0.191406H19.6092ZM25.4558 11.3507C25.4558 12.5743 25.9608 13.7381 26.8543 14.5428L24.5428 17.2096C22.9112 15.7199 21.9854 13.5852 21.9918 11.3507C21.9918 9.1095 22.9242 6.9814 24.5558 5.49837L26.8672 8.1585C25.9673 8.9632 25.4558 10.127 25.4558 11.3507ZM29.5671 15.6002C31.5548 15.6002 33.2123 14.1505 33.6008 12.2152L37 12.9334C36.2943 16.498 33.2318 19.1848 29.5671 19.1781C28.7513 19.1781 27.9355 19.0384 27.1586 18.7724L28.2657 15.3808C28.6736 15.5204 29.1074 15.6002 29.5671 15.6002ZM29.5736 3.52987C33.2382 3.52987 36.3007 6.22326 37 9.79449L33.6008 10.5061C33.2188 8.53092 31.5289 7.10775 29.5736 7.10775C29.1333 7.10775 28.6866 7.18091 28.2722 7.32721L27.178 3.93554C27.9485 3.66288 28.7578 3.52987 29.5736 3.52987Z" fill="url(#paint0_linear_1403_211)"/>
<defs>
<linearGradient id="paint0_linear_1403_211" x1="18.5" y1="0.191406" x2="18.5" y2="19.1914" gradientUnits="userSpaceOnUse">
<stop stop-color="white"/>
<stop offset="1" stop-color="white" stop-opacity="0.75"/>
</linearGradient>
</defs>
</svg>
