<svg width="68" height="16" viewBox="0 0 68 16" fill="none" xmlns="http://www.w3.org/2000/svg">
<path d="M14.6902 2.10968C15.047 1.88311 15.5065 0.851287 14.9815 0.421694C14.8153 0.285696 14.5372 0.246223 14.1492 0.3067C13.7893 0.362707 13.5824 0.475468 13.4418 0.651983C13.2159 0.935746 13.0086 1.7918 13.3586 2.10983C13.6995 2.41936 14.4632 2.25372 14.6902 2.10968ZM9.61313 0.421694C9.3575 1.95074 9.06955 3.45 8.7808 4.94851C6.92691 4.96653 5.03408 5.03282 3.24596 4.91008C3.58368 3.44404 3.82589 1.88982 4.16151 0.421694H2.16397C1.44895 4.16142 0.798401 7.96087 0 11.6237H2.03923C2.35901 9.74493 2.65827 7.84677 3.07952 6.06107C4.8182 6.02159 6.90203 5.95278 8.57283 6.0995C8.22833 7.95595 7.81208 9.74583 7.49085 11.6237H9.53008C10.1855 7.82874 10.8756 4.06623 11.6942 0.421694H9.61313ZM38.4527 3.64424C36.8661 3.05347 35.6186 4.05178 35.0403 4.98694C35.1715 4.5709 35.2255 4.08366 35.3318 3.64424H33.7503C33.3637 6.40814 32.7939 9.00297 32.2523 11.6237H34.0419C34.2926 10.0682 34.4009 7.97115 34.9572 6.48306C35.4019 5.29394 36.5657 4.28088 38.2449 4.83351C38.2682 4.39483 38.4044 4.05998 38.4527 3.64424ZM39.4513 9.74404C39.2863 9.35109 39.2438 8.70253 39.285 8.20933C39.3775 7.10094 39.8157 5.75139 40.4919 5.14036C41.4251 4.29712 43.2673 4.43669 44.7368 4.91022C44.7822 4.45367 44.8818 4.04642 44.9449 3.60595C42.535 3.24309 40.2482 3.46891 39.0357 4.6418C37.8485 5.78997 37.0706 8.42889 37.6205 10.0893C38.2643 12.0323 41.1512 12.1379 43.4884 11.3937C43.5918 11.0032 43.6466 10.5678 43.738 10.1662C42.4607 10.7777 40.019 11.0955 39.4513 9.74404ZM59.5517 3.68252C57.9701 2.95352 56.6534 4.17676 56.1394 4.91008C56.2858 4.53381 56.2942 4.02989 56.4305 3.64409H54.8492C54.4228 6.38401 53.909 9.04319 53.3096 11.6236H55.1408C55.1522 10.566 55.3776 9.78366 55.5567 8.74662C55.9393 6.53192 56.5013 4.10332 59.3024 4.83336C59.395 4.45888 59.4336 4.03406 59.5517 3.68252ZM12.8591 3.64424C12.8106 3.65064 12.8138 3.70486 12.8174 3.75923C12.4231 6.47755 11.8894 9.06762 11.3193 11.6236H13.1087C13.5387 8.88694 14.0312 6.20824 14.6485 3.64409L12.8591 3.64424ZM28.5897 3.49081C27.2967 3.58272 26.2038 3.92562 25.427 4.68009C24.4743 5.60526 23.7029 7.65089 23.9289 9.5139C24.2515 12.1716 27.8411 12.0761 30.7122 11.432C30.7611 10.9655 30.8836 10.5667 30.9618 10.1276C29.7792 10.5356 27.7256 11.1051 26.5088 10.3963C25.5904 9.86082 25.585 8.50546 25.8846 7.32721C27.8143 7.2706 29.8199 7.28133 31.7523 7.32721C31.8748 6.49215 32.2256 5.58172 31.9188 4.75695C31.5141 3.66807 30.0647 3.38594 28.5897 3.49081ZM30.2959 6.40635H26.0926C26.2257 5.51559 27.0951 4.53649 28.4648 4.48823C29.754 4.4428 30.677 4.92452 30.2959 6.40635ZM21.8065 3.64424C20.2919 3.11976 18.4461 3.74583 17.6458 4.34136C17.6487 4.36757 17.6267 4.37115 17.6031 4.37308C17.6167 4.36251 17.6316 4.35193 17.6458 4.34136C17.6456 4.33916 17.6454 4.33697 17.645 4.3348C17.6584 4.07875 17.7561 3.90029 17.7697 3.64424H16.23C15.5883 7.57954 14.8274 11.4048 14.0245 15.1914H15.8139C16.0729 13.7167 16.2439 12.1609 16.6047 10.7797C17.0133 12.2324 19.6818 11.9549 20.8079 11.3936C23.131 10.2353 24.923 4.72328 21.8065 3.64424ZM20.3916 10.1276C19.4342 11.0623 17.0806 11.0483 16.8959 9.47532C16.8155 8.79101 17.092 8.07348 17.229 7.36549C17.3672 6.64885 17.4669 5.96127 17.6033 5.33222C18.5463 4.27075 21.3174 4.1425 21.5985 5.90764C21.8424 7.44012 21.1844 9.35347 20.3916 10.1276ZM66.2101 0.191555C66.0568 1.43118 65.8517 2.62328 65.5861 3.75923C61.1965 2.47835 58.5047 5.45556 58.5531 9.13019C58.5627 9.84086 58.6953 10.5456 59.1772 11.0483C60.0084 11.9143 62.3873 12.1218 63.5887 11.3934C63.821 11.2525 64.0587 10.996 64.2127 10.8182C64.3286 10.6843 64.5123 10.3335 64.5458 10.4345C64.4824 10.8237 64.3881 11.1845 64.3795 11.6236H66.0025C66.3155 7.48733 67.2824 3.95451 68 0.191406L66.2101 0.191555ZM62.2152 10.7413C61.0106 10.7651 60.4116 10.0779 60.3839 8.93833C60.3359 6.9426 61.2856 4.72537 63.214 4.52651C64.1117 4.43401 64.7618 4.62646 65.4196 4.83351C64.8156 7.07532 65.0336 10.6856 62.2152 10.7413ZM46.7757 3.64424C46.6876 4.10005 46.5524 4.51251 46.4428 4.94851C47.4988 4.70436 50.7869 3.956 51.1038 5.25536C51.209 5.68704 51.0275 6.14568 50.8957 6.48306C47.9225 6.22343 45.499 6.67879 44.8614 8.63133C44.4345 9.93917 44.9092 11.2262 45.8186 11.5854C47.5701 12.2772 49.7004 11.4848 50.4379 10.3963C50.3613 10.773 50.2888 11.1539 50.3133 11.6237H51.8529C51.8694 10.2643 52.084 9.164 52.3107 7.94076C52.504 6.8991 52.8677 5.86787 52.8102 4.94851C52.6777 2.84299 48.8938 3.58778 46.7757 3.64424ZM49.6888 10.0892C48.7666 10.9214 46.178 11.1578 46.4428 9.16847C46.6626 7.51623 48.6143 7.16514 50.7289 7.40362C50.5719 8.30749 50.3915 9.45506 49.6888 10.0892Z" fill="url(#paint0_linear_1403_276)"/>
<defs>
<linearGradient id="paint0_linear_1403_276" x1="34" y1="0.191406" x2="34" y2="15.1914" gradientUnits="userSpaceOnUse">
<stop stop-color="white"/>
<stop offset="1" stop-color="white" stop-opacity="0.75"/>
</linearGradient>
</defs>
</svg>
